<svg xmlns="http://www.w3.org/2000/svg" viewBox="0 0 454.17 93"><defs><style>.cls-1{fill:#2a3f54;}.cls-2{fill:#159f85;}</style></defs><title>Fichier 3</title><g id="Calque_2" data-name="Calque 2"><g id="Calque_1-2" data-name="Calque 1"><path class="cls-1" d="M58.38,22.21c0,9-5.23,14-14.6,14-2.92,0-3.41-.49-3.41-2.19,0-3.28-.36-11.31-7.78-11.31-5.11,0-10,3.53-10,8.51,0,13.26,33.93,8.76,33.93,36.25C56.56,81.81,47.31,93,28.46,93,12.28,93,0,84.85,0,79.62c0-10.7,1.09-15.08,4.26-15.08,4.5,0,9.61,9.49,21,9.49,4.62,0,9.12-1.58,9.12-6.2,0-12.28-31.5-6.45-31.5-34.79,0-21,17.39-28.83,33-28.83C51,4.21,58.38,11.51,58.38,22.21Z"/><path class="cls-1" d="M77.81,91.71c-10,0-12.41-4.14-12.41-11.55,0-5,1.09-16.05,3.65-51.81.12-1.95.24-2.8.61-3.16s.85-.37,1.95-.37h4.74c10,0,12.41,4.14,12.41,11.07,0,4.74-1.09,18.49-3.89,53.39-.12,1.95-.61,2.43-2.68,2.43Z"/><path class="cls-2" d="M82.19,0c6.93,0,10,3,10,7.78,0,6-4.62,10.46-13.14,10.46-6.45,0-9.85-2.55-9.85-7.78C69.17,4,74.28,0,82.19,0Z"/><path class="cls-1" d="M151.47,89.72c-.61,1.34-2.43,2.07-6.81,2.07-5.6,0-11.92-1.22-13.74-6.2C126.05,69.16,122.28,43.5,118,27c0,6.69-1.34,46.22-1.34,59.23,0,4.87-.49,5.59-1.95,5.59h-6.69C98.93,91.79,95.4,88,95.4,81c0-4,1.22-19.46,2.43-35,2.43-31.5,2.43-29.68,2.55-38.68a1.91,1.91,0,0,1,2.07-1.82h17c19.1,0,15.45,17.51,23.84,62.76C154,27.81,149,47.51,159.38,7.5a2.83,2.83,0,0,1,3-2.07h19c10.34,0,12.28,4.14,12.28,11.55,0,11.19-4.38,69.57-4.74,73-.12,1.34-.49,1.82-1.95,1.82H180.3c-9.12,0-12.65-4-12.65-9.85,0-5.59,4.14-38.8,4.87-55C168.5,38.63,157.92,73.66,151.47,89.72Z"/><path class="cls-1" d="M199.83,78.65c0-3,.49-9.37,2.31-32.72,2.19-28.83,2.43-31.62,2.43-34.18,0-5.23,0-6.2,2.19-6.32,9.49-.61,16.05-1,21-1,24.81,0,34.66,8.15,34.66,22.14,0,7.66-2.92,17.39-12.89,19.95,9.37,2.92,12.89,10,12.89,19.22,0,14.84-8.88,27.24-38.68,27.24C204.7,93,199.83,88.26,199.83,78.65ZM223.43,56l-1.34,19.83A28.31,28.31,0,0,0,230,77.19c10.09,0,11.8-6.57,11.8-11.19,0-6.08-2.92-10.7-11.07-10.7A45.9,45.9,0,0,0,223.43,56Zm1.22-17.51a28.83,28.83,0,0,0,6.93,1c9.61,0,11.43-5.11,11.43-9,0-5-2.92-9.24-11.07-9.24a43.94,43.94,0,0,0-6.32.61C225.37,26.11,225.13,31.94,224.64,38.51Z"/><path class="cls-1" d="M348.67,41.19C348.67,60.65,342,93,305.62,93c-26.76,0-34.54-17.15-34.54-38.56,0-25.3,10.58-50.35,44.39-50.35C339.31,4.09,348.67,17.84,348.67,41.19Zm-55,11.55c0,14.72,5.23,21.29,14.23,21.29,15,0,18.12-21.89,18.12-31.87,0-11.8-3.77-19.22-13.14-19.22C295.89,22.94,293.7,43.13,293.7,52.74Z"/><path class="cls-2" d="M441.79,4.69h-.18v0h-75.4v0h-3.93a1.92,1.92,0,0,0-2.08,1.84c-.12,9.07-.12,7.23-2.57,39-1.22,15.68-2.45,31.24-2.45,35.28,0,6.65,3.11,10.4,11,10.85v0h81.22c1.47,0,1.84-.49,2-1.84.37-3.43,4.78-62.24,4.78-73.51C454.17,8.85,452.21,4.69,441.79,4.69ZM390.41,12q.84-.21,1.69-.38a22.72,22.72,0,0,1,4.26-.46,18.73,18.73,0,0,1,3.36.22,23.66,23.66,0,0,1,2.56.59,13.76,13.76,0,0,1,2,.73c.93.43,1.83.91,2.73,1.41a21,21,0,0,1,3.91,2.82,11.17,11.17,0,0,1,3.56,6.29c.16.81.3,1.63.46,2.44a1.35,1.35,0,0,0,.19.44c.33.52.71,1,1,1.56q.91,1.65,1.74,3.33c.33.67.6,1.38.87,2.08s.49,1.33.72,2,.4,1.19.58,1.79.38,1.4.56,2.11.42,1.65.58,2.49c.22,1.15.39,2.31.56,3.47a28,28,0,0,1,.29,4,16.74,16.74,0,0,1-.8,5.74,1.83,1.83,0,0,1-.11.21l-.11,0a14.53,14.53,0,0,0,.05-3.15,11,11,0,0,0-.77-3.09,12.65,12.65,0,0,0-1.61-2.72,12.3,12.3,0,0,0-2.23-2.24.19.19,0,0,1,.12,0l.12,0A6.06,6.06,0,0,1,418.8,45c.65.72,1.26,1.49,1.88,2.24l.22.24.06,0c0-.08,0-.16,0-.23-.12-.6-.23-1.2-.36-1.8-.17-.79-.34-1.58-.56-2.36s-.47-1.6-.76-2.38a13.16,13.16,0,0,0-.9-2.06,14.39,14.39,0,0,0-3.21-3.82l-.27-.26,0-.07c.16.07.32.13.47.21a8.55,8.55,0,0,1,2.44,1.88,2.17,2.17,0,0,0,.21.18.51.51,0,0,0,0-.13c-.22-.65-.42-1.31-.67-1.94q-.59-1.51-1.24-3a17.41,17.41,0,0,0-1.57-2.86,17.12,17.12,0,0,0-3.4-3.62l-.35-.3,0-.06.24,0a7,7,0,0,0,.91.22.64.64,0,0,0,.68-.5,1.57,1.57,0,0,0-.06-.93,7.13,7.13,0,0,0-1-1.78,22.36,22.36,0,0,0-6.29-5.58,22.17,22.17,0,0,0-3.61-1.85c-1-.38-2-.76-3-1.06a23.9,23.9,0,0,0-3.26-.73,26.6,26.6,0,0,0-5.41-.32l-.18,0v-.07A3.5,3.5,0,0,1,390.41,12Zm19.38,19.91a.77.77,0,0,0,1.12-.33.66.66,0,0,1,.11-.13.38.38,0,0,1,0,.45,1.72,1.72,0,0,1-.71.71c-.22.12-.43.24-.64.37s-.28.3-.1.5a4.6,4.6,0,0,0,.6.54c.21.16.22.21,0,.39a3,3,0,0,1-1.29.76,1.46,1.46,0,0,1-1.78-.61c-.3-.48-.55-1-.81-1.48a7,7,0,0,0-1.74-2.44s0-.08-.1-.16a1.34,1.34,0,0,1,.25,0,4.5,4.5,0,0,0,.68.22,5.69,5.69,0,0,0,1.2.08.57.57,0,0,0,.41-.88,1.64,1.64,0,0,0-.63-.57,2.3,2.3,0,0,1-.26-.21l0-.07.26,0a10.42,10.42,0,0,0,1.28-.27,6.47,6.47,0,0,1,2.75-.4,1.81,1.81,0,0,1,1.34.71,2.43,2.43,0,0,1,.39,2,.86.86,0,0,1-.13.24H412l-.09-.22a7.82,7.82,0,0,0-.36-.94,1.32,1.32,0,0,0-2-.49A1.37,1.37,0,0,0,409.79,31.92Zm-34.06,14c-.2.5-.37,1-.53,1.52s-.4,1.24-.58,1.87-.37,1.39-.55,2.08-.29,1.19-.45,1.78c-.11.44-.22.88-.36,1.31-.05.15-.05.41-.29.41s-.27-.22-.35-.37a11.82,11.82,0,0,1-.94-2.81c-.22-.95-.4-1.91-.54-2.87-.17-1.16-.33-2.33-.42-3.49a53.07,53.07,0,0,1-.11-7.61c.08-1.19.14-2.38.28-3.56s.35-2.49.58-3.72c.2-1.05.42-2.11.71-3.14s.69-2.17,1.07-3.24A23.48,23.48,0,0,1,375,20.26a18.07,18.07,0,0,1,4.78-5.57,10.81,10.81,0,0,1,4.25-2.09,9.37,9.37,0,0,1,3.5-.05,12.7,12.7,0,0,1,2.93.89,20.4,20.4,0,0,1,3.23,1.77,32,32,0,0,1,4.88,4c1.38,1.38,2.71,2.8,4.06,4.21a.85.85,0,0,1,.11.19l0,0a1.74,1.74,0,0,1-.25-.07L400,22.51c-.82-.36-1.65-.72-2.47-1.07a3.88,3.88,0,0,0-2.18-.3A1.91,1.91,0,0,0,393.72,23a4.78,4.78,0,0,0,.63,2.42l.35.63-.06,0a2.24,2.24,0,0,1-.28-.28c-.42-.59-.86-1.15-1.22-1.77a4.8,4.8,0,0,1-.73-2.61,2.22,2.22,0,0,1,1.74-2.11,6.23,6.23,0,0,1,2.16-.17,3.07,3.07,0,0,0,.32,0,1.48,1.48,0,0,0-.17-.15c-.48-.28-1-.6-1.46-.84a18.55,18.55,0,0,0-2.23-.89,13.53,13.53,0,0,0-2.13-.45,11.69,11.69,0,0,0-3.19,0,12.87,12.87,0,0,0-2.41.56,9.76,9.76,0,0,0-2,.93,12.47,12.47,0,0,0-3.36,3.13,22.44,22.44,0,0,0-2.47,4.17,33,33,0,0,0-1.57,4.06c-.33,1.06-.6,2.15-.89,3.22a20.71,20.71,0,0,0-.58,3.29c-.15,1.34-.23,2.68-.34,4a1.47,1.47,0,0,0,0,.21l.06,0,.17-.22c.24-.34.46-.68.71-1a24.23,24.23,0,0,1,4.67-4.77,18.76,18.76,0,0,1,3.43-2.11c.67-.32,1.35-.61,2-.88s1.3-.49,2-.7,1.33-.4,2-.57,1.35-.3,2-.43,1.08-.17,1.62-.24a1.56,1.56,0,0,1,.32,0v.08l-.12.08c-.79.35-1.6.66-2.38,1a37.68,37.68,0,0,0-3.93,2.21A32,32,0,0,0,381,37.21a18.21,18.21,0,0,0-2.89,3.64c-.49.83-1,1.68-1.37,2.55S376.06,45.09,375.73,45.94ZM382,47.7a28.47,28.47,0,0,0-.9,3.88,32.44,32.44,0,0,0-.44,4.64,25.2,25.2,0,0,0,.29,4.55c.1.63.24,1.25.35,1.87a.78.78,0,0,1,0,.25.85.85,0,0,1-.21-.1,15.1,15.1,0,0,1-2.49-2.95,10.18,10.18,0,0,1-1.5-3.9c-.12-.69-.18-1.39-.23-2.09a19.73,19.73,0,0,1,.41-5.6,19.31,19.31,0,0,1,.9-3,19.75,19.75,0,0,1,1.41-2.92,23.85,23.85,0,0,1,3.74-4.73,35.62,35.62,0,0,1,8-5.95l.43-.21.06.08a2,2,0,0,1-.15.2,43.57,43.57,0,0,0-5.27,6.53,33.61,33.61,0,0,0-3.18,6C382.8,45.39,382.37,46.54,382,47.7Zm6.36,1.85c.06,1.45.16,2.9.29,4.35.08.91.2,1.82.34,2.73s.34,2,.55,3c.17.82.37,1.64.58,2.46s.45,1.76.72,2.63.59,1.82.91,2.72.74,1.89,1.11,2.83a.71.71,0,0,1,0,.23.79.79,0,0,1-.2-.06A12.94,12.94,0,0,1,390,68a17.79,17.79,0,0,1-2.48-3.84A20.42,20.42,0,0,1,386.25,61a23,23,0,0,1-.57-2.38c-.18-1-.34-2-.43-3a39.55,39.55,0,0,1,0-6.29c0-.56.09-1.12.18-1.68.18-1.08.35-2.17.59-3.24s.54-2.13.88-3.17a23.09,23.09,0,0,1,1.4-3.33,19.87,19.87,0,0,1,2.25-3.52,2.63,2.63,0,0,1,.26-.25l.06,0a1.35,1.35,0,0,1,0,.14c-.11.32-.24.63-.34,1-.25.8-.51,1.59-.71,2.39-.28,1.07-.55,2.15-.74,3.23s-.35,2.25-.47,3.39A36.81,36.81,0,0,0,388.37,49.55Zm29.9,17.3c-.34.73-.69,1.46-1.06,2.18a29.73,29.73,0,0,1-4,5.85,27.63,27.63,0,0,1-10.65,7.77,37.55,37.55,0,0,1-3.68,1.26c-1.12.32-2.28.53-3.44.74a31.25,31.25,0,0,1-5.85.48,21.36,21.36,0,0,1-4.23-.36,7.34,7.34,0,0,1-1.16-.34c-.37-.14-.42-.38-.1-.61a7.5,7.5,0,0,1,1-.54c.46-.23.94-.42,1.38-.68a.94.94,0,0,0,.45-1.14c-.16-.52-.39-1-.6-1.53s-.38-.81-.52-1.23a.88.88,0,0,1,0-.57c.06-.14.47-.12.66,0a2.82,2.82,0,0,1,.45.37,8.56,8.56,0,0,0,5.11,2.65,18.65,18.65,0,0,0,5.78-.14,19.45,19.45,0,0,0,3.29-.9A28.1,28.1,0,0,0,405,78.37a35.34,35.34,0,0,0,10.82-9.13c.69-.88,1.41-1.75,2.12-2.61a1.08,1.08,0,0,1,.32-.18A1.28,1.28,0,0,1,418.27,66.85ZM412,59.41a2.84,2.84,0,0,0-.9-1.64,1.87,1.87,0,0,0-.56-.29.25.25,0,0,0-.34.2,4.12,4.12,0,0,0-.12.7c0,.43,0,.86,0,1.29a.4.4,0,0,1-.18.29c-.05,0-.21-.07-.27-.15a8.55,8.55,0,0,1-.67-1q-1.55-2.75-3.07-5.52a.57.57,0,0,1,0-.22,1,1,0,0,1,.2.07c1.72,1.06,3.43,2.11,5.14,3.18.93.58,1.85,1.18,2.77,1.78a1.17,1.17,0,0,1,.58.68,8,8,0,0,1,.25,1.33,6.76,6.76,0,0,1-.33,2.22,14.86,14.86,0,0,1-1.31,3.12,32.17,32.17,0,0,1-4.37,6.09,33.61,33.61,0,0,1-6,5,1.16,1.16,0,0,1-.27.1l-.07-.07a1.66,1.66,0,0,1,.19-.29c.61-.62,1.21-1.25,1.85-1.83a29.93,29.93,0,0,0,5-5.54A14.52,14.52,0,0,0,411,66.08a19.52,19.52,0,0,0,.89-3A8.49,8.49,0,0,0,412,59.41Zm26.53,2.33a9.37,9.37,0,0,1-1,.12,42.82,42.82,0,0,1-5.33-.05c-1-.08-2.08-.15-3.11-.28-1.19-.15-2.37-.35-3.55-.58s-2.09-.43-3.11-.72-2.14-.68-3.19-1.08S417,58.29,416,57.77c-1.47-.7-2.91-1.45-4.34-2.22-1.92-1-3.75-2.18-5.57-3.38-2.2-1.45-4.31-3-6.39-4.61l-6.19-4.84a1.5,1.5,0,0,0-.19-.11l-.06.07a40.87,40.87,0,0,0,12.84,13.76.34.34,0,0,1-.22,0l-.6-.16a19.64,19.64,0,0,1-3.15-1.24,16.84,16.84,0,0,1-4.61-3.39,18.15,18.15,0,0,1-2.43-3.25c-.6-1-1.16-2-1.69-3.08a19,19,0,0,1-.85-2.05,14.81,14.81,0,0,1-.56-1.85c-.16-.72-.25-1.46-.37-2.2a1.19,1.19,0,0,0,0-.15.92.92,0,0,0-.09.41c0,1,0,2.07.1,3.1.1,1.33.24,2.65.42,4,.15,1,.36,2.07.61,3.09s.53,2.08.89,3.09.8,2,1.23,3a43.89,43.89,0,0,0,2.37,4.54,62.67,62.67,0,0,0,3.83,5.84,2.93,2.93,0,0,1,.18.34,1.59,1.59,0,0,1-.24,0c-.24,0-.49-.08-.73-.16A8.8,8.8,0,0,1,397,64.6a16,16,0,0,1-3.91-5.07,26,26,0,0,1-1.77-4.32c-.37-1.21-.7-2.43-1-3.66a28.4,28.4,0,0,1-.56-3.67,27.37,27.37,0,0,1,0-5.57c.11-1,.23-1.92.4-2.87s.37-1.61.6-2.4.45-1.45.72-2.16.6-1.45.94-2.15a15,15,0,0,1,1.09-1.91,10.19,10.19,0,0,1,3.5-2.94c.17-.1.36-.17.54-.25l.08.1-.27.18a11.64,11.64,0,0,0-2.9,3.22,7.28,7.28,0,0,0-1,3,7.91,7.91,0,0,0,.43,3.56,8.56,8.56,0,0,0,1.87,3,2.66,2.66,0,0,0,1.23.84,9,9,0,0,0,1.22.2,36.84,36.84,0,0,1,4.21.64,13.61,13.61,0,0,1,3.52,1.27c.15.08.23,0,.2-.13a7.94,7.94,0,0,0-.21-1.32c-.25-.8-.56-1.58-.85-2.38a1.5,1.5,0,0,1,0-.24l.08,0,.48.41a17.65,17.65,0,0,1,2.45,2.45,4.63,4.63,0,0,1,.77,1.38c.17.52.36,1,.53,1.54s.4,1.24.58,1.87.42,1.46.62,2.19c.06.2.09.4.14.61l-.07.05c-1.1-.81-2.17-1.66-3.26-2.48l-3.27-2.48a.66.66,0,0,0,.14.25c.78.82,1.52,1.68,2.34,2.46a30.5,30.5,0,0,0,5.21,4c1.15.7,2.33,1.35,3.51,2,.84.45,1.72.83,2.6,1.22.69.3,1.39.58,2.09.85s1.61.6,2.41.89,1.38.5,2.07.74,1.49.49,2.24.72,1.59.51,2.39.75,1.73.49,2.6.72,1.86.51,2.8.74,2.09.48,3.14.72c.34.08.67.17,1,.27.08,0,.14.13.21.19C438.75,61.64,438.67,61.73,438.58,61.74Z"/></g></g></svg>